<svg width="30" height="30" viewBox="0 0 30 30" fill="none" xmlns="http://www.w3.org/2000/svg">
<path d="M25.1786 27.5H4.82143C4.22946 27.5 3.75 26.822 3.75 25.9848V4.01515C3.75 3.17803 4.22946 2.5 4.82143 2.5H25.1786C25.7705 2.5 26.25 3.17803 26.25 4.01515V25.9848C26.25 26.822 25.7705 27.5 25.1786 27.5Z" fill="url(#paint0_radial_10_611)"/>
<path d="M23.75 11.875H22.5C22.3343 11.8749 22.1753 11.8091 22.0581 11.6919C21.9409 11.5747 21.8751 11.4157 21.875 11.25V10C21.8751 9.83426 21.9409 9.67532 22.0581 9.55812C22.1753 9.44093 22.3343 9.37506 22.5 9.375H23.75C23.9157 9.37506 24.0747 9.44093 24.1919 9.55812C24.3091 9.67532 24.3749 9.83426 24.375 10V11.25C24.3749 11.4157 24.3091 11.5747 24.1919 11.6919C24.0747 11.8091 23.9157 11.8749 23.75 11.875Z" fill="white"/>
<path d="M23.75 7.5H22.5C22.3343 7.49994 22.1753 7.43407 22.0581 7.31688C21.9409 7.19968 21.8751 7.04074 21.875 6.875V5.625C21.8751 5.45926 21.9409 5.30032 22.0581 5.18312C22.1753 5.06593 22.3343 5.00006 22.5 5H23.75C23.9157 5.00006 24.0747 5.06593 24.1919 5.18312C24.3091 5.30032 24.3749 5.45926 24.375 5.625V6.875C24.3749 7.04074 24.3091 7.19968 24.1919 7.31688C24.0747 7.43407 23.9157 7.49994 23.75 7.5Z" fill="white"/>
<path d="M23.75 16.25H22.5C22.3343 16.2499 22.1753 16.1841 22.0581 16.0669C21.9409 15.9497 21.8751 15.7907 21.875 15.625V14.375C21.8751 14.2093 21.9409 14.0503 22.0581 13.9331C22.1753 13.8159 22.3343 13.7501 22.5 13.75H23.75C23.9157 13.7501 24.0747 13.8159 24.1919 13.9331C24.3091 14.0503 24.3749 14.2093 24.375 14.375V15.625C24.3749 15.7907 24.3091 15.9497 24.1919 16.0669C24.0747 16.1841 23.9157 16.2499 23.75 16.25Z" fill="white"/>
<path d="M23.75 20.625H22.5C22.3343 20.6249 22.1753 20.5591 22.0581 20.4419C21.9409 20.3247 21.8751 20.1657 21.875 20V18.75C21.8751 18.5843 21.9409 18.4253 22.0581 18.3081C22.1753 18.1909 22.3343 18.1251 22.5 18.125H23.75C23.9157 18.1251 24.0747 18.1909 24.1919 18.3081C24.3091 18.4253 24.3749 18.5843 24.375 18.75V20C24.3749 20.1657 24.3091 20.3247 24.1919 20.4419C24.0747 20.5591 23.9157 20.6249 23.75 20.625Z" fill="white"/>
<path d="M23.75 25H22.5C22.3343 24.9999 22.1753 24.9341 22.0581 24.8169C21.9409 24.6997 21.8751 24.5407 21.875 24.375V23.125C21.8751 22.9593 21.9409 22.8003 22.0581 22.6831C22.1753 22.5659 22.3343 22.5001 22.5 22.5H23.75C23.9157 22.5001 24.0747 22.5659 24.1919 22.6831C24.3091 22.8003 24.3749 22.9593 24.375 23.125V24.375C24.3749 24.5407 24.3091 24.6997 24.1919 24.8169C24.0747 24.9341 23.9157 24.9999 23.75 25Z" fill="white"/>
<path d="M7.5 11.875H6.25C6.08426 11.8749 5.92532 11.8091 5.80812 11.6919C5.69093 11.5747 5.62506 11.4157 5.625 11.25V10C5.62506 9.83426 5.69093 9.67532 5.80812 9.55812C5.92532 9.44093 6.08426 9.37506 6.25 9.375H7.5C7.66574 9.37506 7.82468 9.44093 7.94188 9.55812C8.05907 9.67532 8.12494 9.83426 8.125 10V11.25C8.12494 11.4157 8.05907 11.5747 7.94188 11.6919C7.82468 11.8091 7.66574 11.8749 7.5 11.875Z" fill="white"/>
<path d="M7.5 7.5H6.25C6.08426 7.49994 5.92532 7.43407 5.80812 7.31688C5.69093 7.19968 5.62506 7.04074 5.625 6.875V5.625C5.62506 5.45926 5.69093 5.30032 5.80812 5.18312C5.92532 5.06593 6.08426 5.00006 6.25 5H7.5C7.66574 5.00006 7.82468 5.06593 7.94188 5.18312C8.05907 5.30032 8.12494 5.45926 8.125 5.625V6.875C8.12494 7.04074 8.05907 7.19968 7.94188 7.31688C7.82468 7.43407 7.66574 7.49994 7.5 7.5Z" fill="white"/>
<path d="M7.5 16.25H6.25C6.08426 16.2499 5.92532 16.1841 5.80812 16.0669C5.69093 15.9497 5.62506 15.7907 5.625 15.625V14.375C5.62506 14.2093 5.69093 14.0503 5.80812 13.9331C5.92532 13.8159 6.08426 13.7501 6.25 13.75H7.5C7.66574 13.7501 7.82468 13.8159 7.94188 13.9331C8.05907 14.0503 8.12494 14.2093 8.125 14.375V15.625C8.12494 15.7907 8.05907 15.9497 7.94188 16.0669C7.82468 16.1841 7.66574 16.2499 7.5 16.25Z" fill="white"/>
<path d="M7.5 20.625H6.25C6.08426 20.6249 5.92532 20.5591 5.80812 20.4419C5.69093 20.3247 5.62506 20.1657 5.625 20V18.75C5.62506 18.5843 5.69093 18.4253 5.80812 18.3081C5.92532 18.1909 6.08426 18.1251 6.25 18.125H7.5C7.66574 18.1251 7.82468 18.1909 7.94188 18.3081C8.05907 18.4253 8.12494 18.5843 8.125 18.75V20C8.12494 20.1657 8.05907 20.3247 7.94188 20.4419C7.82468 20.5591 7.66574 20.6249 7.5 20.625Z" fill="white"/>
<path d="M7.5 25H6.25C6.08426 24.9999 5.92532 24.9341 5.80812 24.8169C5.69093 24.6997 5.62506 24.5407 5.625 24.375V23.125C5.62506 22.9593 5.69093 22.8003 5.80812 22.6831C5.92532 22.5659 6.08426 22.5001 6.25 22.5H7.5C7.66574 22.5001 7.82468 22.5659 7.94188 22.6831C8.05907 22.8003 8.12494 22.9593 8.125 23.125V24.375C8.12494 24.5407 8.05907 24.6997 7.94188 24.8169C7.82468 24.9341 7.66574 24.9999 7.5 25Z" fill="white"/>
<path opacity="0.05" d="M12.3896 10.3126C12.4907 10.3128 12.5894 10.3431 12.6731 10.3997L18.9331 14.5729C19.0035 14.6197 19.0612 14.6832 19.1011 14.7578C19.141 14.8323 19.1619 14.9155 19.1619 15.0001C19.1619 15.0846 19.141 15.1678 19.1011 15.2423C19.0612 15.3169 19.0035 15.3804 18.9331 15.4272L12.6731 19.6004C12.5895 19.6569 12.4909 19.6872 12.39 19.6874C12.3224 19.6875 12.2554 19.6743 12.1929 19.6485C12.1304 19.6226 12.0736 19.5848 12.0258 19.537C11.9779 19.4892 11.94 19.4324 11.9141 19.3699C11.8883 19.3075 11.875 19.2405 11.875 19.1729V10.8266C11.875 10.759 11.8882 10.6921 11.9141 10.6297C11.94 10.5673 11.9779 10.5106 12.0257 10.4628C12.0735 10.4151 12.1302 10.3772 12.1927 10.3514C12.2551 10.3257 12.3221 10.3125 12.3896 10.3126ZM12.3896 9.68759C12.0876 9.68785 11.798 9.80792 11.5843 10.0215C11.3707 10.235 11.2504 10.5246 11.25 10.8266V19.1729C11.2496 19.3791 11.3053 19.5815 11.4111 19.7585C11.5169 19.9355 11.6688 20.0804 11.8506 20.1777C12.0324 20.275 12.2372 20.3211 12.4431 20.311C12.6491 20.3009 12.8484 20.235 13.0198 20.1204L19.2798 15.9472C19.4358 15.8433 19.5637 15.7024 19.6522 15.5372C19.7406 15.3719 19.7869 15.1873 19.7869 14.9999C19.7869 14.8124 19.7405 14.6279 19.652 14.4626C19.5635 14.2974 19.4356 14.1565 19.2796 14.0526L13.0198 9.8797C12.8334 9.75467 12.6141 9.68781 12.3896 9.68759Z" fill="black"/>
<path opacity="0.07" d="M12.3896 10.3126C12.4907 10.3128 12.5894 10.3431 12.6731 10.3997L18.9331 14.5729C19.0035 14.6197 19.0612 14.6832 19.1011 14.7578C19.141 14.8323 19.1619 14.9155 19.1619 15.0001C19.1619 15.0846 19.141 15.1678 19.1011 15.2423C19.0612 15.3169 19.0035 15.3804 18.9331 15.4272L12.6731 19.6004C12.5895 19.6569 12.4909 19.6872 12.39 19.6874C12.3224 19.6875 12.2554 19.6743 12.1929 19.6485C12.1304 19.6227 12.0736 19.5848 12.0258 19.537C11.9779 19.4892 11.94 19.4324 11.9141 19.3699C11.8883 19.3075 11.875 19.2405 11.875 19.1729V10.8266C11.875 10.759 11.8882 10.6921 11.9141 10.6297C11.94 10.5673 11.9779 10.5106 12.0257 10.4628C12.0735 10.4151 12.1302 10.3772 12.1927 10.3515C12.2552 10.3257 12.3221 10.3125 12.3896 10.3126ZM12.3896 10.0001C12.1704 10.0003 11.9602 10.0874 11.8052 10.2423C11.6501 10.3973 11.5628 10.6074 11.5625 10.8266V19.1729C11.5621 19.3225 11.6024 19.4694 11.6792 19.5979C11.7559 19.7264 11.8661 19.8316 11.998 19.9022C12.1299 19.9728 12.2786 20.0063 12.428 19.9989C12.5775 19.9915 12.7221 19.9436 12.8465 19.8604L19.1065 15.6872C19.2196 15.6118 19.3124 15.5096 19.3766 15.3898C19.4408 15.2699 19.4744 15.136 19.4744 15C19.4744 14.864 19.4408 14.7301 19.3766 14.6102C19.3124 14.4903 19.2195 14.3881 19.1063 14.3127L12.8465 10.1397C12.7114 10.049 12.5524 10.0004 12.3896 10.0001Z" fill="black"/>
<path d="M11.875 19.1729V10.8266C11.875 10.7337 11.9002 10.6425 11.948 10.5628C11.9957 10.4831 12.0642 10.4179 12.1462 10.3741C12.2281 10.3303 12.3204 10.3095 12.4132 10.314C12.506 10.3185 12.5958 10.3482 12.6731 10.3997L18.9331 14.5729C19.0035 14.6197 19.0612 14.6832 19.1011 14.7578C19.141 14.8323 19.1619 14.9155 19.1619 15.0001C19.1619 15.0846 19.141 15.1678 19.1011 15.2424C19.0612 15.3169 19.0035 15.3804 18.9331 15.4272L12.6731 19.6004C12.5958 19.6519 12.5059 19.6815 12.4131 19.6859C12.3202 19.6904 12.228 19.6695 12.146 19.6256C12.0641 19.5818 11.9956 19.5165 11.9479 19.4367C11.9002 19.357 11.875 19.2658 11.875 19.1729Z" fill="white"/>
<defs>
<radialGradient id="paint0_radial_10_611" cx="0" cy="0" r="1" gradientUnits="userSpaceOnUse" gradientTransform="translate(3.23375 2.47312) scale(32.7025)">
<stop offset="0.002" stop-color="#427FDB"/>
<stop offset="0.397" stop-color="#2668CB"/>
<stop offset="0.763" stop-color="#1358BF"/>
<stop offset="1" stop-color="#0C52BB"/>
</radialGradient>
</defs>
</svg>
